# xmcd CD database file generated by libcdaudio 0.99.6
# 
# Track frame offsets:
#       150
#       18411
#       39347
#       58941
#       78897
#       101654
# 
# Disc length: 1632 seconds
# 
# Revision: 1
# Processed by: cddbd v1.4PL0 Copyright (c) Steve Scherf et al.
# Submitted via: libcdaudio 0.99.6
# 
DISCID=41065e06
DTITLE=Michael Corrado - The MCB
DYEAR=1900
DGENRE=
TTITLE0=Second Time Around
TTITLE1=Magic
TTITLE2=Something You Ain't
TTITLE3=Caffeine Trip
TTITLE4=Shadows
TTITLE5=Earings By The Bed
EXTD=
EXTT0=
EXTT1=
EXTT2=
EXTT3=
EXTT4=
EXTT5=
PLAYORDER=
